<svg width="643" height="215" viewBox="0 0 643 215" fill="none" xmlns="http://www.w3.org/2000/svg">
<g filter="url(#filter0_d_912_21)">
<path d="M22.3196 87.1929C25.4601 86.9552 28.4578 86.7175 30.9322 86.5273C32.2169 86.4323 32.9307 86.1945 33.4065 86.0044C33.6444 85.9093 34.0251 85.8142 34.2154 85.8142C34.6437 85.8142 35.1195 85.9568 35.5478 86.147C36.547 86.5273 37.5939 87.2405 37.5939 88.1438C37.5939 88.7143 37.118 89.0471 35.8333 89.0471C34.7864 88.9995 33.8824 88.9995 33.0259 88.9995C29.5047 88.9995 25.6504 89.1897 22.272 89.475C22.2244 94.8473 22.2244 99.6966 22.2244 105.069C22.2244 106.353 22.3196 107.826 22.3672 108.349C22.4148 108.635 22.4148 108.825 22.4148 109.015C22.4148 109.49 22.3196 110.346 21.9389 111.44C21.4155 112.866 20.9397 113.341 20.2735 113.341C19.8453 113.341 19.417 113.104 19.1315 112.723C17.8468 111.059 16.562 109.633 14.1828 107.921C13.9449 107.779 13.8498 107.541 13.8498 107.398C13.8498 107.161 13.9925 107.018 14.2304 107.018C14.3256 107.018 14.3256 107.018 14.4683 107.066C15.8483 107.494 18.6557 108.254 18.9888 108.254C19.2267 108.254 19.417 108.064 19.417 107.731C19.417 100.98 19.4646 94.7997 19.4646 89.6651C16.7523 89.9029 14.0401 90.1406 12.2319 90.3783C10.2334 90.616 8.71075 90.8537 7.28325 91.0914C7.04534 91.139 6.855 91.139 6.66467 91.139C6.37917 91.139 6.14125 91.0914 5.90333 90.9012C4.90408 90.1881 4 89.0946 4 88.7618C4 88.5241 4.23792 88.429 4.66617 88.429C5.52267 88.429 7.1405 88.429 8.71075 88.2864C11.994 88.0011 15.7531 87.7159 19.4646 87.4306C19.417 86.0044 19.417 84.6732 19.3694 83.3895C19.3218 81.8206 19.2743 79.5861 18.7033 78.4927C18.6081 78.3025 18.5605 78.1123 18.5605 77.9697C18.5605 77.732 18.6557 77.5893 18.9888 77.5893C19.417 77.5893 20.9873 78.1123 22.272 78.7779C23.1285 79.2058 23.3188 79.5861 23.3188 79.9665C23.3188 80.1566 23.2237 80.3468 23.1285 80.537C22.9382 80.8698 22.4148 82.201 22.3672 83.6748C22.3196 84.8633 22.3196 86.0519 22.3196 87.1929ZM9.94792 96.0358C10.0431 95.6555 10.2334 95.5129 10.4238 95.5129C10.7093 95.5129 10.9472 95.7981 10.9472 96.226C10.7568 100.267 9.85275 103.12 8.71075 104.926C7.80667 106.353 6.95017 107.208 5.95092 107.208C4.76133 107.208 4.2855 106.353 4.2855 105.116C4.2855 104.641 4.66617 103.975 5.90333 102.882C7.23567 101.693 8.99625 99.3163 9.94792 96.0358ZM29.4095 95.7981C29.3144 95.6555 29.2668 95.5129 29.2668 95.3702C29.2668 95.1325 29.4095 94.9424 29.6474 94.9424C29.7426 94.9424 29.9329 94.9899 30.1233 95.1325C32.5976 96.7014 34.8816 99.1736 36.4519 101.646C37.118 102.739 37.4987 103.88 37.4987 104.784C37.4987 105.544 36.9753 106.495 36.0712 106.495C35.3099 106.495 34.4058 105.83 33.7872 104.356C32.4073 101.028 30.837 98.0326 29.4095 95.7981Z" fill="#363636"/>
<path d="M53.9625 91.2816V88.2389C53.9625 87.2405 53.9625 86.2896 53.9149 85.3388C53.8674 84.5306 53.7246 83.6748 53.4391 82.7715C53.3915 82.5813 53.3439 82.3436 53.3439 82.201C53.3439 81.9157 53.4391 81.7255 53.677 81.7255C54.0577 81.7255 56.1038 82.7715 56.7224 83.342C64.4785 82.819 71.8063 82.3436 78.468 82.0108C78.9914 81.9633 79.3245 81.9157 79.8003 81.678C80.0858 81.5354 80.3237 81.4878 80.5616 81.4878C81.1802 81.4878 81.7512 81.7731 83.3215 83.1994C84.2256 84.0551 84.3683 84.3404 84.3683 84.8158C84.3683 85.1486 84.2731 85.3388 84.0828 85.5765C83.8449 85.8617 83.4642 86.3847 83.1787 87.7159C81.9416 93.3735 80.0382 98.3179 77.0405 102.454C73.8524 106.828 69.3795 110.299 63.051 112.533C62.9082 112.581 62.8606 112.581 62.7655 112.581C62.3372 112.581 62.0517 112.248 62.0517 111.963C62.0517 111.772 62.1469 111.582 62.3372 111.487C68.19 108.492 72.3297 104.451 75.1371 99.7917C77.897 95.2752 79.4196 90.1881 80.0382 85.006C80.0858 84.5781 80.0858 84.5305 80.0858 84.4355C80.0858 84.1978 80.0382 84.1502 79.61 84.1502C73.6145 84.4355 66.0011 85.006 59.8153 85.5765C59.387 85.624 58.9588 85.6716 58.6733 85.6716C58.0071 85.6716 57.4837 85.3863 56.9127 84.9584C56.8651 85.4814 56.8651 87.3831 56.8651 89.475V94.7046C56.8175 96.2735 56.2941 96.7014 55.5804 96.7014C54.9618 96.7014 54.4859 96.4162 54.1053 95.7506C53.8674 95.3227 53.677 94.6096 53.677 93.944C53.677 93.3259 53.9625 92.7079 53.9625 91.2816Z" fill="#363636"/>
<path d="M115.107 90.7111L113.68 91.7095C109.54 94.5145 104.782 96.9867 99.5474 98.7933C99.4046 98.8408 99.3095 98.8408 99.2143 98.8408C98.8336 98.8408 98.5957 98.6031 98.5957 98.3654C98.5957 98.0802 98.7861 97.7949 99.1667 97.6047C104.211 94.9899 108.826 92.2324 112.728 89.3323C116.154 86.765 118.961 84.1027 121.055 81.3452C122.054 80.0616 122.149 79.0632 122.197 78.0172C122.245 77.6369 122.387 77.4467 122.721 77.4467C123.244 77.4467 124.338 77.9221 125.766 79.0156C126.432 79.5386 126.575 79.8714 126.575 80.2517C126.575 80.537 126.48 80.8222 126.242 81.0124C125.813 81.3452 125.195 81.9157 124.529 82.5813C122.34 84.9109 119.77 87.2405 116.773 89.475C117.439 89.9979 118.057 90.7586 118.248 91.0914C118.438 91.4242 118.486 91.8045 118.486 92.1373C118.486 92.2324 118.486 92.3275 118.438 93.0407C118.39 93.8964 118.39 94.5145 118.39 96.1785C118.39 98.413 118.39 105.307 118.533 110.917V111.249C118.533 112.153 118.343 113.246 117.296 113.246C115.916 113.246 115.202 111.392 114.917 110.203C114.869 109.966 114.822 109.728 114.822 109.538C114.822 109.015 114.964 108.635 115.107 108.254C115.25 107.874 115.297 107.066 115.297 106.59C115.393 102.929 115.488 99.3163 115.488 95.2276V92.5652C115.488 91.8045 115.44 91.2816 115.107 90.7111Z" fill="#363636"/>
<path d="M160.93 92.5177C160.93 95.3702 160.882 98.6982 160.882 101.884C160.882 105.069 160.93 108.207 160.978 111.012C160.978 112.676 160.549 113.484 159.74 113.484C158.789 113.484 158.17 112.771 157.599 110.917C157.504 110.584 157.409 110.108 157.409 109.633C157.409 109.3 157.456 108.967 157.552 108.682C157.647 108.349 157.885 107.636 157.932 106.495C158.075 99.9343 158.123 88.3339 158.123 83.2469C158.123 80.9649 157.932 79.4435 157.361 78.0648C157.314 77.9221 157.266 77.8271 157.266 77.6844C157.266 77.3992 157.504 77.1615 157.885 77.1615C158.36 77.1615 160.264 77.9697 161.12 78.6353C161.596 79.0156 161.786 79.396 161.786 79.8238C161.786 80.0616 161.691 80.3943 161.596 80.6796C161.263 81.678 160.978 83.1043 160.978 85.1961C160.978 86.5273 160.93 88.6192 160.93 91.0439C166.307 92.0898 172.778 93.8013 175.586 95.3227C177.441 96.3211 178.06 97.5097 178.06 98.3654C178.06 99.1261 177.537 99.7441 176.775 99.7441C176.109 99.7441 175.253 99.3163 174.348 98.6982C171.303 96.6539 165.308 94.1817 160.93 92.5177Z" fill="#363636"/>
<path d="M198.473 86.0044C198.473 85.8142 198.568 85.7191 198.759 85.7191C199.806 85.7667 200.567 85.7667 201.423 85.7667C202.661 85.7667 203.993 85.7191 205.944 85.624C210.369 85.3863 215.127 84.9109 217.792 84.4355C218.601 84.3404 219.124 83.7699 219.791 83.7699C220.457 83.7699 221.551 84.1027 222.265 84.483C223.026 84.9109 223.312 85.4814 223.312 85.9568C223.312 86.9077 221.932 87.3356 221.17 87.4306C215.365 87.8585 208.085 88.3815 202.518 88.7143C201.756 88.7618 201.519 88.7618 201.185 88.7618C200.614 88.7618 200.281 88.6667 199.71 88.0962C199.044 87.4306 198.473 86.2421 198.473 86.0044ZM193.953 105.639C199.425 105.259 204.945 104.879 209.846 104.641C215.08 104.356 219.553 104.166 222.503 104.071C223.407 104.023 224.121 103.928 224.787 103.738C224.977 103.69 225.215 103.643 225.453 103.643C225.929 103.643 226.5 103.738 227.023 103.975C228.308 104.498 229.117 105.164 229.307 105.639C229.402 105.83 229.402 106.02 229.402 106.21C229.402 106.923 228.879 107.351 227.927 107.351C227.499 107.351 226.88 107.303 226.072 107.256C224.073 107.161 221.932 107.113 220.028 107.113C214.794 107.113 205.753 107.398 197.997 108.302C196.713 108.444 196.427 108.587 196.094 108.587C195.761 108.587 195.475 108.492 195.238 108.302C194.286 107.541 193.334 106.257 193.334 105.972C193.334 105.782 193.477 105.687 193.953 105.639Z" fill="#363636"/>
<path d="M244.867 83.1043C244.677 82.9141 244.582 82.7239 244.582 82.5813C244.582 82.3911 244.677 82.2485 245.01 82.2485C245.105 82.2485 245.343 82.2961 245.533 82.3436C248.721 83.1043 251.433 84.4355 253.194 85.8142C253.908 86.3847 254.336 87.288 254.336 88.1438C254.336 88.952 253.908 89.8553 253.147 89.8553C252.623 89.8553 251.957 89.5225 251.338 88.9995C249.625 87.5733 246.532 84.7207 244.867 83.1043ZM245.39 107.589C245.39 107.398 245.533 107.208 245.819 107.208C245.961 107.208 246.58 107.398 247.579 107.398C248.198 107.398 248.816 107.303 249.483 107.018C253.813 105.164 258.476 102.169 262.901 98.6982C267.564 94.9899 271.894 90.7586 275.225 86.67C275.416 86.4322 275.606 86.3372 275.844 86.3372C276.177 86.3372 276.462 86.5749 276.462 86.9552C276.462 87.0978 276.415 87.288 276.32 87.4782C274.131 91.9947 269.182 97.1293 264.043 101.456C259.951 104.831 255.288 108.159 251.624 109.823C250.529 110.346 250.196 110.536 249.958 110.774C249.72 111.012 249.435 111.202 249.007 111.202C248.721 111.202 248.483 111.154 248.198 110.964C246.913 110.061 245.39 108.064 245.39 107.589Z" fill="#363636"/>
<path d="M323.808 78.3025C324.95 79.1582 325.568 80.1566 325.568 80.9649C325.568 81.5354 324.997 82.1059 324.474 82.1059C324.093 82.1059 323.617 81.8682 322.618 80.6321C321.571 79.3009 320.334 77.8746 319.62 77.209C319.525 77.1139 319.525 77.0664 319.525 76.9713C319.525 76.8287 319.62 76.686 319.811 76.686C320.096 76.686 322.095 77.0664 323.808 78.3025ZM327.424 75.4499C328.614 76.2106 329.375 77.2565 329.375 77.7795C329.375 78.6353 328.994 79.2058 328.281 79.2058C327.757 79.2058 327.424 78.7779 326.472 77.7795C325.378 76.6385 324.236 75.4024 323.332 74.6417C323.189 74.4991 323.142 74.4515 323.142 74.3565C323.142 74.2138 323.284 74.1187 323.475 74.1187C324.093 74.1187 325.997 74.5466 327.424 75.4499ZM301.539 81.5829V81.0124C301.539 80.7271 301.682 80.4894 302.062 80.4894C302.681 80.4894 303.728 81.3452 304.679 82.7715C308.914 82.5813 312.721 82.1059 315.005 81.7731C316.194 81.6305 316.718 81.3452 317.003 81.1075C317.241 80.9173 317.527 80.7747 317.907 80.7747C318.526 80.7747 319.002 81.0599 320.287 82.296C321.143 83.1518 321.286 83.5797 321.286 84.0551C321.286 84.2928 321.191 84.5305 321.048 84.6256C320.715 84.8158 320.001 85.4814 319.049 87.0978C316.432 91.6619 313.102 97.0342 308.486 101.979C304.251 106.543 298.922 110.774 292.07 113.627C291.927 113.674 291.784 113.722 291.594 113.722C291.166 113.722 290.833 113.484 290.833 113.151C290.833 112.913 291.023 112.628 291.451 112.39C297.209 109.158 302.348 104.689 306.583 99.7441C310.913 94.7997 314.196 89.5225 316.337 84.4355C316.385 84.2928 316.432 84.1502 316.432 84.0551C316.432 83.9125 316.337 83.865 316.147 83.865C316.052 83.865 315.957 83.865 315.576 83.9125C312.816 84.2453 309.247 84.5781 306.487 85.0535C306.154 85.1011 305.821 85.1486 305.536 85.1486C305.108 85.1486 304.727 85.1011 304.346 84.8633C303.442 85.8142 301.539 88.3339 299.969 89.8078C297.304 92.3751 294.354 94.7997 290.833 96.749C290.69 96.8441 290.547 96.8441 290.404 96.8441C290.024 96.8441 289.643 96.6063 289.643 96.2735C289.643 96.0358 289.786 95.7506 290.166 95.4653C295.21 91.5193 299.017 87.1929 300.777 84.1977C301.444 83.1043 301.539 82.2485 301.539 81.5829Z" fill="#363636"/>
<path d="M357.411 88.7618V87.3356C357.411 86.1945 357.411 85.006 357.363 83.6748C357.316 81.4878 357.125 79.3484 356.697 78.5877C356.65 78.4926 356.602 78.3025 356.602 78.2074C356.602 77.9221 356.745 77.732 357.125 77.732C357.554 77.732 358.125 77.8746 359.695 78.6353C360.742 79.1583 360.932 79.5861 360.932 79.9665C360.932 80.1091 360.885 80.2517 360.837 80.3468C360.599 80.8222 360.361 81.6305 360.361 83.1043C360.361 85.1961 360.314 86.8126 360.266 88.5241C361.17 88.4766 362.264 88.429 363.406 88.3339C364.977 88.1913 365.548 88.0011 365.976 87.8585C366.261 87.7634 366.404 87.7159 366.785 87.7159C367.166 87.7159 367.641 87.811 368.07 87.9536C369.45 88.429 370.211 89.2373 370.211 90.0455C370.211 90.4258 369.83 90.8062 368.593 90.8062C367.356 90.7586 366.357 90.7586 365.357 90.7586C363.692 90.7586 362.027 90.8062 360.218 90.8537C359.933 97.6523 359.124 102.407 356.983 105.782C354.746 109.3 351.273 111.297 345.182 113.009C344.992 113.056 344.754 113.104 344.659 113.104C344.278 113.104 343.945 112.818 343.945 112.533C343.945 112.248 344.088 112.01 344.468 111.867C349.512 110.061 352.891 107.969 354.889 104.023C356.412 101.028 357.173 96.9391 357.363 90.9963C355.746 91.0439 353.366 91.1865 351.178 91.3767C349.179 91.5193 347.371 91.6619 345.705 91.8521C345.658 93.5161 345.658 95.2276 345.658 96.9391C345.658 98.1752 345.658 99.3638 345.705 100.695C345.705 103.072 344.944 103.357 344.421 103.357C343.659 103.357 342.66 102.216 342.66 99.9819C342.66 99.2687 342.803 98.6031 342.85 97.6523C342.898 95.7981 342.946 93.8964 342.993 92.0898C341.994 92.2324 341.137 92.3275 340.329 92.4226C338.568 92.6603 337.569 92.8505 336.712 92.9931C336.427 93.0407 336.094 93.1833 335.761 93.1833C335.523 93.1833 335.237 93.1357 334.809 92.8029C333.81 92.0423 333.239 91.234 333.239 90.9012C333.239 90.7111 333.381 90.5684 333.857 90.5684C334.381 90.5684 335.332 90.5209 337.236 90.3783C339.139 90.1881 340.995 90.0455 342.993 89.9028C342.993 87.811 342.993 86.0044 342.946 84.7683C342.898 83.1043 342.66 81.7255 342.279 80.9173C342.232 80.8222 342.184 80.6321 342.184 80.537C342.184 80.2042 342.375 79.9665 342.755 79.9665C343.041 79.9665 343.802 80.2042 345.277 80.9649C346.324 81.4878 346.514 81.9633 346.514 82.4387C346.514 82.6289 346.467 82.819 346.372 83.0092C346.134 83.5322 345.991 84.1977 345.943 85.3863C345.896 86.67 345.801 88.0962 345.753 89.6176C349.845 89.3323 353.795 89.0471 357.411 88.7618Z" fill="#363636"/>
<path d="M389.577 107.921C389.577 109.538 389.339 110.108 388.673 110.108C388.245 110.108 387.579 109.918 387.103 108.967C386.627 108.064 386.484 107.351 386.484 106.495C386.484 105.734 386.437 104.308 386.389 103.215C386.104 99.3163 385.675 92.4701 385.009 88.429C384.771 86.8126 384.438 85.9568 384.105 85.3388C383.962 85.1011 383.915 84.9109 383.915 84.7207C383.915 84.3879 384.153 84.1977 384.581 84.1977C385.104 84.1977 386.58 84.8634 387.769 85.7667C395.62 85.006 402.901 84.5781 409.657 84.1502C410.276 84.1027 410.609 83.96 410.99 83.6748C411.18 83.5322 411.466 83.4371 411.751 83.4371C412.322 83.4371 413.512 84.0551 414.892 85.1961C415.891 86.0519 415.938 86.1945 415.938 86.8126C415.938 87.0978 415.843 87.3356 415.653 87.5257C415.225 87.9536 414.844 88.4766 414.701 89.0946C413.417 94.4194 412.322 98.8884 410.704 104.831C411.323 105.069 411.894 105.402 412.132 105.734C412.322 105.972 412.37 106.257 412.37 106.495C412.37 107.018 411.989 107.398 411.418 107.398C409.229 107.256 407.088 107.208 404.899 107.208C399.808 107.208 394.574 107.541 389.577 107.921ZM389.482 105.497C396.049 104.879 401.949 104.593 408.04 104.451C409.229 98.1752 410.228 91.5193 410.704 87.7159C410.752 87.2405 410.752 87.1929 410.752 87.0978C410.752 86.765 410.609 86.67 409.8 86.67C403.757 86.9077 395.002 87.4306 388.34 88.1913C388.673 93.2308 389.101 99.1261 389.482 105.497Z" fill="#363636"/>
<path d="M432.831 83.1043C432.64 82.9141 432.545 82.7239 432.545 82.5813C432.545 82.3911 432.64 82.2485 432.973 82.2485C433.069 82.2485 433.306 82.2961 433.497 82.3436C436.685 83.1043 439.397 84.4355 441.158 85.8142C441.871 86.3847 442.3 87.288 442.3 88.1438C442.3 88.952 441.871 89.8553 441.11 89.8553C440.587 89.8553 439.921 89.5225 439.302 88.9995C437.589 87.5733 434.496 84.7207 432.831 83.1043ZM433.354 107.589C433.354 107.398 433.497 107.208 433.782 107.208C433.925 107.208 434.544 107.398 435.543 107.398C436.161 107.398 436.78 107.303 437.446 107.018C441.776 105.164 446.439 102.169 450.865 98.6982C455.528 94.9899 459.858 90.7586 463.189 86.67C463.379 86.4322 463.569 86.3372 463.807 86.3372C464.14 86.3372 464.426 86.5749 464.426 86.9552C464.426 87.0978 464.378 87.288 464.283 87.4782C462.094 91.9947 457.146 97.1293 452.007 101.456C447.915 104.831 443.251 108.159 439.587 109.823C438.493 110.346 438.16 110.536 437.922 110.774C437.684 111.012 437.399 111.202 436.97 111.202C436.685 111.202 436.447 111.154 436.161 110.964C434.877 110.061 433.354 108.064 433.354 107.589Z" fill="#363636"/>
<path d="M529.915 178.879V184.037C529.915 186.367 530.581 190.027 531.914 191.192C534.245 193.355 536.41 195.352 545.57 196.517C553.564 197.349 561.725 198.014 571.051 198.014C585.873 198.014 597.698 197.515 609.022 195.352C621.68 192.856 624.844 188.863 626.676 178.546C626.842 177.547 627.009 177.048 627.342 177.048C627.675 177.048 628.175 177.381 628.674 178.047C630.839 181.208 638.001 189.528 638.001 195.019C638.001 199.179 631.173 201.342 628.508 202.008C612.187 205.835 590.703 207 569.052 207C554.064 207 542.239 205.502 536.244 203.173C526.751 199.179 522.254 195.019 522.254 183.538C522.254 171.224 522.754 156.415 522.92 145.266C522.92 141.938 522.587 139.609 521.921 137.279C517.924 137.445 514.094 137.778 510.097 138.111C511.429 138.943 512.761 140.108 513.761 141.273C514.76 142.437 515.426 144.101 515.426 145.765C515.426 146.431 515.259 147.096 515.093 147.762C514.26 149.925 513.761 152.088 513.094 154.584C510.263 164.236 508.098 170.725 502.769 179.877C498.272 187.864 490.778 195.851 483.45 201.176C482.451 202.008 481.618 202.341 480.952 202.341C480.286 202.341 479.953 202.008 479.953 201.342C479.953 200.843 480.286 200.344 480.952 199.512C487.947 192.523 493.609 183.205 498.106 174.053C500.937 168.229 503.602 159.077 505.767 147.762C506.1 146.264 506.266 144.6 506.266 142.937C506.266 141.439 506.1 139.775 505.767 138.444C503.935 138.61 502.436 138.777 500.77 138.943C500.271 142.105 498.605 143.436 496.94 143.436C495.941 143.436 494.941 142.936 494.275 141.938C493.109 140.108 492.61 138.61 492.443 132.121C492.277 124.466 491.777 112.486 490.611 102.169C490.278 99.1736 489.612 96.0121 488.613 93.0169C488.28 92.0185 488.113 91.3529 488.113 90.8537C488.113 90.0217 488.446 89.5225 489.279 89.5225C490.611 89.5225 495.941 91.3529 498.106 92.6841C500.271 92.5177 505.1 91.8521 508.098 91.5193C511.929 84.5305 514.593 78.7066 515.593 72.3834C515.759 71.0522 515.926 69.8875 515.926 68.8891C515.926 68.3899 515.926 67.7243 515.759 66.8923C515.759 65.5611 516.259 64.8955 517.425 64.8955C518.923 64.8955 524.086 67.0587 527.25 69.5547C529.082 70.8858 529.749 71.8842 529.749 72.5498C529.749 73.5482 528.749 74.5466 527.417 75.8778C526.917 76.377 526.584 76.8762 525.252 78.2074C522.088 81.369 517.258 86.8601 513.094 90.8537C521.255 90.0217 529.582 89.1897 535.911 88.6905C538.575 88.5241 540.74 88.0249 542.406 87.1929C542.905 87.0265 543.238 86.8601 543.738 86.8601C545.404 86.8601 547.402 87.6921 552.232 91.8521C554.23 93.6825 555.563 95.0137 555.563 96.5113C555.563 97.5097 555.063 98.508 554.064 99.5064C552.565 101.337 552.065 103.666 551.566 106.495C550.233 116.146 548.901 126.629 547.735 134.284C547.069 137.778 545.57 138.61 544.238 138.61C543.072 138.61 540.907 138.444 540.407 136.447C537.576 136.613 531.914 136.78 528.916 136.946C531.247 138.444 532.746 140.108 532.746 141.439C532.746 142.604 532.746 143.602 532.08 145.266C531.581 146.597 531.081 150.092 530.914 153.087C530.248 161.74 529.915 170.392 529.915 178.879ZM541.073 125.631L542.073 114.649C535.911 114.982 529.915 115.314 523.587 115.98C523.42 120.972 523.087 125.964 522.92 131.122C528.916 130.623 534.745 130.29 540.74 130.124C540.907 128.626 540.907 127.129 541.073 125.631ZM515.926 131.621C516.092 126.629 516.092 121.305 516.259 116.479C510.763 116.978 505.267 117.644 499.938 118.309C500.271 123.135 500.437 128.127 500.604 133.119C505.767 132.62 510.929 132.121 515.926 131.621ZM499.605 112.319C504.601 111.82 511.429 111.154 516.259 110.655C516.259 105.996 516.259 101.337 516.092 96.6777C510.263 97.1768 504.601 97.8424 498.772 98.6744C498.938 100.671 499.105 102.668 499.105 104.665C499.271 107.161 499.438 109.823 499.605 112.319ZM523.92 109.99C526.418 109.823 528.749 109.657 530.581 109.49C534.245 109.158 535.244 108.326 536.743 108.326C539.408 108.326 540.907 108.658 542.406 109.324C542.739 104.665 543.072 100.505 543.238 96.1785C543.238 95.0137 542.905 94.6809 541.74 94.6809C536.41 94.8473 531.081 95.1801 524.586 95.8457C524.253 100.505 524.086 105.33 523.92 109.99ZM555.063 170.559C551.232 172.389 545.237 174.885 540.907 177.048C539.075 177.88 537.743 178.546 536.743 178.546C535.744 178.546 534.911 177.88 534.079 176.549C532.913 174.552 532.08 172.223 532.08 171.723C532.08 171.058 532.746 170.725 533.413 170.392C534.745 169.893 535.078 169.227 536.244 166.565C538.742 161.74 540.907 155.583 542.073 150.258C542.572 148.095 542.905 145.266 542.905 143.103C542.905 141.772 543.072 141.273 543.905 141.273C544.737 141.273 546.569 142.105 549.9 144.6C551.566 145.932 552.398 146.93 552.398 147.762C552.398 148.095 552.232 148.594 551.899 148.927C550.899 149.925 550.067 151.09 548.901 153.253C545.737 158.911 542.406 164.402 538.908 169.893C543.905 169.061 548.734 167.896 553.231 166.898C551.233 162.738 549.734 160.408 549.734 159.909C549.734 159.576 549.9 159.41 550.233 159.41C551.566 159.41 554.563 161.074 557.728 163.57C561.058 166.232 564.223 170.559 564.223 174.719C564.223 177.215 563.224 178.712 561.058 178.712C559.393 178.712 557.894 177.381 557.061 175.218C556.562 173.887 555.896 172.223 555.063 170.559ZM585.04 84.8633V83.5322C585.04 76.0442 583.875 69.2219 582.709 65.7275C582.542 65.2283 582.376 64.8955 582.376 64.3963C582.376 63.5643 582.875 63.0651 584.041 63.0651C585.707 63.0651 592.035 64.8955 595.033 66.8923C596.365 67.7243 597.365 69.0555 597.365 70.5531C597.365 71.3851 597.031 72.217 596.532 73.049C595.033 75.2122 594.2 78.2074 593.867 83.865C593.867 85.3625 593.701 88.6905 593.534 92.8505C595.699 92.6841 598.031 92.3513 600.529 92.0185C606.358 91.1865 608.023 88.8569 610.188 88.8569C612.187 88.8569 615.851 90.0217 617.849 91.6857C618.848 92.3513 619.681 93.3497 619.681 94.8473C619.681 97.0104 618.349 97.3432 613.186 97.8424C606.025 98.6744 599.197 99.34 593.201 99.8392C593.034 105.83 592.701 115.314 592.701 117.81C597.365 117.311 602.028 116.646 605.858 116.146C610.521 115.647 613.186 113.151 616.017 113.151C621.68 113.318 627.176 115.814 627.176 119.308C627.176 121.637 626.343 121.637 620.181 122.137C612.686 122.802 603.36 123.468 593.534 124.466C603.86 137.945 612.353 145.599 618.848 152.255C622.013 155.416 626.01 158.744 635.669 165.068C637.834 166.565 639 167.73 639 168.562C639 169.394 638.167 169.893 636.668 170.226C634.67 170.725 631.839 170.725 626.01 170.725C620.514 170.725 619.681 169.727 615.351 164.069C609.689 157.08 599.363 142.936 592.035 130.29C592.202 139.609 592.368 148.428 592.368 157.746C592.368 164.236 592.202 171.224 592.202 178.712C592.035 187.698 590.869 191.026 587.872 191.026C585.54 191.026 582.709 186.034 582.709 179.877C582.709 173.387 583.542 170.392 583.708 166.232C584.208 157.413 584.707 141.772 584.874 135.116C578.878 144.933 571.051 153.087 560.392 160.076C559.56 160.741 559.06 160.908 558.394 160.908C557.894 160.908 557.061 160.242 557.061 159.576C557.061 158.911 557.395 158.412 557.728 158.079C567.054 149.426 575.048 137.945 581.043 125.797L573.049 126.796C570.551 126.962 565.055 127.961 561.725 127.961C560.559 127.961 559.726 127.794 558.893 126.962C557.561 125.298 555.729 122.469 555.729 121.97C555.729 121.471 556.062 121.305 556.728 121.305C561.058 120.972 566.388 120.473 571.717 119.973C574.881 119.641 579.545 119.308 584.541 118.642L584.874 100.671C575.881 101.503 571.551 102.335 569.052 102.335C568.386 102.335 567.554 102.002 566.887 101.337C564.889 99.34 563.39 96.6777 563.39 96.1785C563.39 95.8457 563.723 95.6793 565.555 95.5129C569.719 95.3465 577.38 94.5145 584.874 93.6825L585.04 84.8633Z" fill="#363636"/>
<path d="M571.336 4.1362C572.526 4.99196 573.145 6.08544 573.145 6.84612C573.145 7.41663 572.574 7.98714 572.05 7.98714C571.67 7.98714 571.194 7.74943 570.194 6.51332C569.148 5.18213 567.91 3.75586 567.197 3.09026C567.102 2.99518 567.102 2.94763 567.102 2.85255C567.102 2.70992 567.197 2.5673 567.387 2.5673C567.72 2.5673 569.719 2.99518 571.336 4.1362ZM575 1.33119C576.19 2.09187 576.951 3.1378 576.951 3.66077C576.951 4.51654 576.571 5.08705 575.857 5.08705C575.333 5.08705 575 4.65916 574.049 3.66077C572.954 2.51975 571.812 1.28365 570.908 0.522966C570.765 0.380341 570.718 0.332796 570.718 0.237712C570.718 0.0950838 570.861 0 571.051 0C571.622 0 573.62 0.427883 575 1.33119ZM565.436 11.1725C565.864 13.6447 565.912 16.9251 565.912 19.3973C565.912 28.478 561.534 37.6061 551.399 37.6061C546.736 37.6061 540.122 34.8962 540.122 24.4368C540.122 16.9727 544.309 10.3643 547.497 6.9412C544.737 7.51171 541.216 8.03468 540.407 8.17731C540.169 8.22485 539.979 8.22485 539.836 8.22485C539.313 8.22485 538.98 8.08222 538.647 7.79697C537.743 6.98875 537.457 6.46578 537.457 6.18052C537.457 5.99035 537.647 5.89527 538.028 5.89527C540.36 5.84772 543.024 5.51493 545.07 5.18213C546.26 5.0395 548.639 4.56408 549.543 3.8034C550.067 3.42306 550.352 3.23289 550.828 3.23289C551.351 3.23289 551.78 3.37552 552.493 3.89849C553.207 4.42145 553.493 4.99196 553.493 5.41985C553.493 5.84772 553.112 6.13298 552.541 6.46578C548.544 8.8429 542.406 15.8792 542.406 24.9598C542.406 31.6633 547.45 34.706 551.542 34.706C560.44 34.706 564.104 24.5319 564.104 16.212C564.104 13.2168 564.009 11.743 563.771 10.6971C563.39 9.36587 562.819 7.98714 562.153 6.79858C561.963 6.46578 561.915 6.18052 561.915 5.94281C561.915 5.51493 562.2 5.27722 562.914 5.0395C563.295 4.94442 563.58 4.89688 563.818 4.89688C564.437 4.89688 564.675 5.18213 564.913 5.80018C565.103 6.32315 565.531 7.03629 565.864 7.6068C567.482 10.4118 569.29 12.884 573.573 16.2595C574.429 16.8776 574.62 17.7333 574.62 18.494C574.62 19.2072 574.429 20.0154 573.62 20.0154C573.145 20.0154 572.669 19.6826 572.193 19.3023C570.052 17.6383 567.244 14.025 565.436 11.1725Z" fill="#363636"/>
</g>
<defs>
<filter id="filter0_d_912_21" x="0" y="0" width="643" height="215" filterUnits="userSpaceOnUse" color-interpolation-filters="sRGB">
<feFlood flood-opacity="0" result="BackgroundImageFix"/>
<feColorMatrix in="SourceAlpha" type="matrix" values="0 0 0 0 0 0 0 0 0 0 0 0 0 0 0 0 0 0 127 0" result="hardAlpha"/>
<feOffset dy="4"/>
<feGaussianBlur stdDeviation="2"/>
<feComposite in2="hardAlpha" operator="out"/>
<feColorMatrix type="matrix" values="0 0 0 0 0 0 0 0 0 0 0 0 0 0 0 0 0 0 0.25 0"/>
<feBlend mode="normal" in2="BackgroundImageFix" result="effect1_dropShadow_912_21"/>
<feBlend mode="normal" in="SourceGraphic" in2="effect1_dropShadow_912_21" result="shape"/>
</filter>
</defs>
</svg>
