<svg width="151" height="144" viewBox="0 0 151 144" fill="none" xmlns="http://www.w3.org/2000/svg">
<path d="M96.2851 54.245C97.9327 49.4837 99.2529 45.2175 99.9649 42.0236C103.423 26.5144 94.4118 11.031 78.5089 6.93367C62.606 2.83631 49.1404 12.5199 45.1281 27.2277C31.2198 20.9847 14.9468 25.2247 8.25108 40.1199C1.55533 55.0151 7.55025 71.7996 21.7253 78.98C28.1587 82.2389 40.4902 86.5243 52.0411 90.2332M103.325 65.222C97.9049 50.9728 83.4001 42.4642 68.1329 48.2621C52.8658 54.0601 45.2365 70.1675 50.1824 85.2682C54.1561 97.4005 68.9252 124.878 74.578 135.211C75.3494 136.622 75.7351 137.327 76.3241 137.76C76.8372 138.138 77.4695 138.365 78.1057 138.399C78.8361 138.438 79.5818 138.138 81.0733 137.539C92.003 133.148 120.863 121.306 131.638 114.46C145.05 105.938 149.627 88.618 141.279 74.4757C132.931 60.3334 116.562 57.6591 103.325 65.222Z" stroke="url(#paint0_linear_912_113)" stroke-width="10" stroke-linecap="round" stroke-linejoin="round"/>
<defs>
<linearGradient id="paint0_linear_912_113" x1="14.3118" y1="23.7536" x2="165.572" y2="140.259" gradientUnits="userSpaceOnUse">
<stop stop-color="#FFF6C9"/>
<stop offset="1" stop-color="#FAD575"/>
</linearGradient>
</defs>
</svg>
