<svg width="143" height="149" viewBox="0 0 143 149" fill="none" xmlns="http://www.w3.org/2000/svg">
<path d="M109.728 16.4425C99.9391 10.5526 89.4499 11.6016 80.0213 14.9833C72.6316 17.6808 64.408 17.0568 57.51 13.2751L57.5931 13.2814C41.7899 4.64664 14.7523 6.43807 6.62836 34.227C-1.15185 60.7889 17.9585 73.1836 15.1218 91.8496C10.9777 118.938 17.7842 139.338 31.0749 140.347C54.2506 142.105 41.1486 101.176 62.0815 102.765C83.0144 104.353 63.8864 142.837 87.0622 144.595C100.353 145.604 110.16 126.464 110.151 99.0606C110.163 80.1803 130.931 70.7282 127.242 43.3795C126.723 39.4965 126.163 37.7134 124.895 34.6426M90.4117 36.0872L87.6639 40.6776C86.7339 42.2312 86.269 43.008 85.6765 43.6667C85.1508 44.2513 84.552 44.7656 83.8948 45.1971C83.1542 45.6833 82.3162 46.0258 80.6401 46.7107L75.6875 48.7343L80.278 51.4821C81.8316 52.4121 82.6084 52.8771 83.2671 53.4695C83.8517 53.9952 84.366 54.594 84.7975 55.2512C85.2837 55.9918 85.6261 56.8299 86.311 58.506L88.3347 63.4585L91.0825 58.8681C92.0125 57.3145 92.4775 56.5377 93.0699 55.8789C93.5956 55.2944 94.1944 54.78 94.8516 54.3486C95.5922 53.8623 96.4302 53.5199 98.1063 52.835L103.059 50.8113L98.4684 48.0635C96.9148 47.1336 96.1381 46.6686 95.4793 46.0762C94.8948 45.5505 94.3804 44.9516 93.9489 44.2945C93.4627 43.5539 93.1203 42.7158 92.4354 41.0397L90.4117 36.0872ZM118.801 4.59497L114.509 13.6427C113.482 15.8075 112.969 16.8899 112.231 17.7772C111.577 18.5636 110.795 19.2347 109.919 19.7626C108.931 20.3583 107.783 20.7026 105.488 21.391L95.8967 24.2683L104.944 28.56C107.109 29.5869 108.192 30.1003 109.079 30.8384C109.865 31.4925 110.536 32.2738 111.064 33.1499C111.66 34.1383 112.004 35.2859 112.693 37.5809L115.57 47.1726L119.862 38.1249C120.889 35.96 121.402 34.8776 122.14 33.9903C122.794 33.204 123.576 32.5329 124.452 32.0049C125.44 31.4092 126.588 31.065 128.883 30.3765L138.474 27.4992L129.427 23.2075C127.262 22.1806 126.179 21.6672 125.292 20.9292C124.506 20.275 123.835 19.4937 123.307 18.6176C122.711 17.6292 122.367 16.4817 121.678 14.1867L118.801 4.59497Z" stroke="url(#paint0_linear_912_112)" stroke-width="8" stroke-linecap="round" stroke-linejoin="round"/>
<defs>
<linearGradient id="paint0_linear_912_112" x1="85.5815" y1="5.6613" x2="139.631" y2="75.3735" gradientUnits="userSpaceOnUse">
<stop stop-color="#FFF6C9"/>
<stop offset="1" stop-color="#FAD575"/>
</linearGradient>
</defs>
</svg>
