<svg width="142" height="142" viewBox="0 0 142 142" fill="none" xmlns="http://www.w3.org/2000/svg">
<path d="M51.7028 74.157L66.7144 85.2535L91.6814 51.4774M32.8195 22.3884C38.0034 21.1829 42.6749 18.3728 46.1689 14.3582C54.3226 4.98976 68.0721 2.92792 78.6151 9.49267C83.1331 12.3058 88.4233 13.622 93.7327 13.2539C106.123 12.395 117.303 20.6594 120.116 32.7564C121.322 37.9403 124.132 42.6117 128.146 46.1058C137.515 54.2595 139.577 68.009 133.012 78.552C130.199 83.0699 128.882 88.3602 129.251 93.6696C130.11 106.06 121.845 117.24 109.748 120.053C104.564 121.258 99.8928 124.069 96.3987 128.083C88.245 137.452 74.4955 139.513 63.9525 132.949C59.4346 130.136 54.1443 128.819 48.8349 129.187C36.4449 130.046 25.2645 121.782 22.4515 109.685C21.246 104.501 18.436 99.8296 14.4214 96.3356C5.05289 88.1819 2.99104 74.4324 9.55579 63.8894C12.3689 59.3714 13.6852 54.0812 13.3171 48.7718C12.4581 36.3817 20.7225 25.2014 32.8195 22.3884Z" stroke="url(#paint0_linear_912_91)" stroke-width="10" stroke-linecap="round" stroke-linejoin="round"/>
<defs>
<linearGradient id="paint0_linear_912_91" x1="11.5115" y1="21.2726" x2="159.129" y2="142.29" gradientUnits="userSpaceOnUse">
<stop stop-color="#FFF6C9"/>
<stop offset="1" stop-color="#FAD575"/>
</linearGradient>
</defs>
</svg>
