<svg width="869" height="869" viewBox="0 0 869 869" fill="none" xmlns="http://www.w3.org/2000/svg">
<g filter="url(#filter0_i_900_12)">
<g clip-path="url(#clip0_900_12)">
<rect width="869" height="869" rx="30" fill="url(#paint0_linear_900_12)"/>
<path d="M890 490.701C788.831 454.336 699.014 473.981 667.217 488.193C665.042 496.657 660.692 518.602 657.896 530.828C735.202 501.234 845.05 518.496 890 530.827V490.701Z" fill="url(#paint1_linear_900_12)"/>
<path d="M666.101 489.016C834.912 168.213 600.151 89.5071 509.849 138.815C521.745 136.423 554.929 137.208 580.251 154.684C629.28 169.039 706.887 263.577 675.856 393.708C670.891 417.217 667.342 446.263 666.101 489.016Z" fill="url(#paint2_linear_900_12)"/>
<path d="M539.72 696.943C626.372 685.703 568.778 582.298 675.856 393.708C672.864 404.324 669.698 432.542 668.46 482.75C631.014 645.737 641.289 689.887 596.972 712.867C589.545 713.804 567.696 711.931 539.72 696.943Z" fill="url(#paint3_linear_900_12)"/>
<path d="M184.073 692.905C74.1032 698.386 -16.0037 568.439 -47 503.559V603.526C-25.7795 642.08 18.8818 694.191 80.1987 719.376C86.9371 721.588 117.394 721.057 184.073 692.905Z" fill="url(#paint4_linear_900_12)"/>
<path d="M80.1987 719.376C115.396 722.351 208.805 682.702 250.408 664.004C254.153 673.673 264.712 691.586 268.977 697.371C230.181 719.583 137.113 750.616 80.1987 719.376Z" fill="url(#paint5_linear_900_12)"/>
<path d="M195.594 480.871C64.7681 310.245 116.787 118.044 344.797 125.194C221.447 150.999 137.221 247.318 187.807 407.497C191.752 428.12 198.833 471.668 195.594 480.871Z" fill="white"/>
<path d="M195.782 481.058C199.021 473.84 191.942 429.101 187.998 407.634C219.112 462.983 261.036 527.051 266.774 590.885C270.213 629.136 285.295 665.928 301.959 686.111C307.93 693.343 314.104 698.442 320.018 700.711C351.155 712.658 398.794 671.466 418.721 649.376L425.26 654.976C393.293 709.941 334.652 826.716 248.404 663.376C244.68 651.193 227.811 621.375 224.117 589.951C219.718 552.536 206.788 507.89 195.782 481.058Z" fill="url(#paint6_linear_900_12)"/>
<path d="M279.808 647.975C311.01 603.589 344.274 590.139 356.338 589.303L382.45 612.388C341.887 624.3 329.827 641.214 295.505 677.889C288.016 665.852 281.576 653.2 279.808 647.975Z" fill="url(#paint7_linear_900_12)"/>
<path d="M597.533 712.307C523.499 786.918 424.58 645.812 356.145 589.307C371.076 588.995 402.867 589.057 410.582 591.805C420.225 595.239 519.766 714.803 597.533 712.307Z" fill="url(#paint8_linear_900_12)"/>
<path d="M433.737 663.363L390.411 709.646L405.481 687.902L425.26 654.976L433.737 663.363Z" fill="url(#paint9_linear_900_12)"/>
<path d="M458.687 638.115C519.035 581.55 588.879 550.9 616.102 542.49L630.128 495.767C527.139 520.436 463.155 591.393 443.414 624.098L458.687 638.115Z" fill="url(#paint10_linear_900_12)"/>
<path d="M413.222 215.773C354.23 173.246 294.886 154.947 272.587 151.113C282.025 145.724 308.804 133.207 344.149 125C360.64 132.15 404.821 153.102 445.892 180.956C437.698 192.562 419.694 215.773 413.222 215.773Z" fill="url(#paint11_linear_900_12)"/>
<path d="M586.702 153.882C551.143 153.882 504.272 237.508 412.881 216.691C418.87 216.691 437.419 193.077 445.944 181.27C464.16 164.617 500.114 143.882 515.813 135.597C547.005 130.128 576.928 146.736 586.702 153.882Z" fill="url(#paint12_linear_900_12)"/>
<path d="M66 341.004C104.524 339.422 105.572 339.686 106.359 302C107.407 341.004 108.717 339.159 142 341.004C106.359 340.477 108.193 351.018 106.359 375C104.262 347.592 108.193 341.004 66 341.004Z" fill="url(#paint13_linear_900_12)"/>
<path d="M341 493.69C390.169 491.675 391.507 492.011 392.51 444C393.848 493.69 395.521 491.339 438 493.69C392.51 493.018 394.852 506.448 392.51 537C389.834 502.083 394.852 493.69 341 493.69Z" fill="url(#paint14_linear_900_12)"/>
<path d="M130 787.69C179.169 785.675 180.507 786.011 181.51 738C182.848 787.69 184.521 785.339 227 787.69C181.51 787.018 183.852 800.448 181.51 831C178.834 796.083 183.852 787.69 130 787.69Z" fill="url(#paint15_linear_900_12)"/>
<path d="M756 77.6895C805.169 75.6751 806.507 76.0108 807.51 28C808.848 77.6895 810.521 75.3393 853 77.6895C807.51 77.0181 809.852 90.4477 807.51 121C804.834 86.083 809.852 77.6895 756 77.6895Z" fill="url(#paint16_linear_900_12)"/>
<path d="M574 747.401C611.003 745.884 612.01 746.137 612.766 710C613.772 747.401 615.031 745.632 647 747.401C612.766 746.895 614.528 757.004 612.766 780C610.752 753.718 614.528 747.401 574 747.401Z" fill="white"/>
<path d="M-18 570.278C24.5793 568.523 25.7379 568.816 26.6069 527C27.7655 570.278 29.2138 568.231 66 570.278C26.6069 569.693 28.6345 581.39 26.6069 608C24.2897 577.588 28.6345 570.278 -18 570.278Z" fill="white"/>
<path d="M46 128.278C88.5793 126.523 89.7379 126.816 90.6069 85C91.7655 128.278 93.2138 126.231 130 128.278C90.6069 127.693 92.6345 139.39 90.6069 166C88.2897 135.588 92.6345 128.278 46 128.278Z" fill="white"/>
<path d="M853 833.278C895.579 831.523 896.738 831.816 897.607 790C898.766 833.278 900.214 831.231 937 833.278C897.607 832.693 899.634 844.39 897.607 871C895.29 840.588 899.634 833.278 853 833.278Z" fill="white"/>
<circle cx="336" cy="444" r="5" fill="url(#paint17_linear_900_12)"/>
<circle cx="433" cy="479" r="5" fill="url(#paint18_linear_900_12)"/>
<circle cx="779" cy="101" r="5" fill="url(#paint19_linear_900_12)"/>
<circle cx="848" cy="64" r="8" fill="url(#paint20_linear_900_12)"/>
<circle cx="596" cy="726" r="6" fill="url(#paint21_linear_900_12)"/>
<circle cx="212" cy="774" r="6" fill="url(#paint22_linear_900_12)"/>
<circle cx="222.5" cy="763.5" r="4.5" fill="url(#paint23_linear_900_12)"/>
<circle cx="584" cy="716" r="5" fill="url(#paint24_linear_900_12)"/>
<g filter="url(#filter1_d_900_12)">
<g filter="url(#filter2_d_900_12)">
<path d="M387.105 500.025V508.275C387.105 512.001 388.173 517.855 390.309 519.718C394.047 523.178 397.518 526.371 412.204 528.234C425.021 529.565 438.105 530.629 453.058 530.629C476.822 530.629 495.78 529.831 513.937 526.371C534.23 522.379 539.304 515.992 542.241 499.493C542.508 497.896 542.775 497.098 543.309 497.098C543.843 497.098 544.644 497.63 545.445 498.694C548.916 503.751 560.398 517.057 560.398 525.839C560.398 532.492 549.45 535.952 545.178 537.016C519.01 543.137 484.565 545 449.853 545C425.822 545 406.864 542.605 397.251 538.879C382.031 532.492 374.822 525.839 374.822 507.476C374.822 487.783 375.623 464.098 375.89 446.268C375.89 440.945 375.356 437.22 374.288 433.494C367.88 433.76 361.738 434.292 355.33 434.825C357.466 436.155 359.602 438.018 361.204 439.881C362.806 441.744 363.874 444.405 363.874 447.066C363.874 448.131 363.607 449.195 363.34 450.26C362.005 453.719 361.204 457.179 360.136 461.171C355.597 476.606 352.126 486.985 343.581 501.622C336.372 514.396 324.356 527.17 312.607 535.686C311.005 537.016 309.67 537.549 308.602 537.549C307.534 537.549 307 537.016 307 535.952C307 535.153 307.534 534.355 308.602 533.024C319.817 521.847 328.895 506.944 336.105 492.307C340.644 482.993 344.916 468.356 348.387 450.26C348.921 447.865 349.188 445.203 349.188 442.542C349.188 440.147 348.921 437.486 348.387 435.357C345.45 435.623 343.047 435.889 340.377 436.155C339.576 441.212 336.906 443.341 334.236 443.341C332.634 443.341 331.031 442.542 329.963 440.945C328.094 438.018 327.293 435.623 327.026 425.244C326.759 413.002 325.958 393.841 324.089 377.342C323.555 372.552 322.487 367.495 320.885 362.705C320.351 361.108 320.084 360.044 320.084 359.245C320.084 357.915 320.618 357.116 321.953 357.116C324.089 357.116 332.634 360.044 336.105 362.173C339.576 361.907 347.319 360.842 352.126 360.31C358.267 349.133 362.539 339.818 364.141 329.706C364.408 327.577 364.675 325.714 364.675 324.117C364.675 323.319 364.675 322.254 364.408 320.923C364.408 318.794 365.209 317.73 367.079 317.73C369.482 317.73 377.759 321.19 382.832 325.181C385.77 327.31 386.838 328.907 386.838 329.972C386.838 331.568 385.236 333.165 383.099 335.294C382.298 336.093 381.764 336.891 379.628 339.02C374.555 344.076 366.812 352.858 360.136 359.245C373.22 357.915 386.571 356.584 396.717 355.786C400.99 355.52 404.461 354.721 407.131 353.391C407.932 353.124 408.466 352.858 409.267 352.858C411.937 352.858 415.141 354.189 422.885 360.842C426.089 363.769 428.225 365.898 428.225 368.294C428.225 369.89 427.424 371.487 425.822 373.084C423.419 376.011 422.618 379.737 421.817 384.261C419.681 399.696 417.544 416.462 415.675 428.704C414.607 434.292 412.204 435.623 410.068 435.623C408.199 435.623 404.728 435.357 403.927 432.163C399.387 432.429 390.309 432.696 385.503 432.962C389.241 435.357 391.644 438.018 391.644 440.147C391.644 442.01 391.644 443.607 390.576 446.268C389.775 448.397 388.974 453.986 388.707 458.776C387.639 472.614 387.105 486.453 387.105 500.025ZM404.995 414.865L406.597 397.301C396.717 397.833 387.105 398.366 376.958 399.43C376.691 407.414 376.157 415.398 375.89 423.647C385.503 422.849 394.848 422.317 404.461 422.051C404.728 419.656 404.728 417.26 404.995 414.865ZM364.675 424.446C364.942 416.462 364.942 407.946 365.209 400.228C356.398 401.027 347.586 402.091 339.042 403.156C339.576 410.873 339.843 418.857 340.11 426.841C348.387 426.042 356.665 425.244 364.675 424.446ZM338.508 393.575C346.518 392.777 357.466 391.712 365.209 390.914C365.209 383.463 365.209 376.011 364.942 368.56C355.597 369.358 346.518 370.423 337.173 371.753C337.44 374.947 337.707 378.14 337.707 381.334C337.974 385.325 338.241 389.583 338.508 393.575ZM377.492 389.85C381.497 389.583 385.236 389.317 388.173 389.051C394.047 388.519 395.649 387.188 398.052 387.188C402.325 387.188 404.728 387.721 407.131 388.785C407.665 381.334 408.199 374.681 408.466 367.761C408.466 365.898 407.932 365.366 406.063 365.366C397.518 365.632 388.974 366.165 378.56 367.229C378.026 374.681 377.759 382.398 377.492 389.85ZM427.424 486.719C421.283 489.646 411.67 493.638 404.728 497.098C401.791 498.428 399.654 499.493 398.052 499.493C396.45 499.493 395.115 498.428 393.78 496.299C391.911 493.106 390.576 489.38 390.576 488.582C390.576 487.517 391.644 486.985 392.712 486.453C394.848 485.654 395.382 484.59 397.251 480.332C401.257 472.614 404.728 462.768 406.597 454.252C407.398 450.792 407.932 446.268 407.932 442.808C407.932 440.679 408.199 439.881 409.534 439.881C410.869 439.881 413.806 441.212 419.147 445.203C421.817 447.332 423.152 448.929 423.152 450.26C423.152 450.792 422.885 451.59 422.351 452.123C420.749 453.719 419.414 455.582 417.545 459.042C412.471 468.09 407.131 476.872 401.524 485.654C409.534 484.324 417.277 482.461 424.487 480.864C421.283 474.211 418.88 470.485 418.88 469.687C418.88 469.155 419.147 468.888 419.681 468.888C421.817 468.888 426.623 471.55 431.696 475.542C437.037 479.8 442.11 486.719 442.11 493.372C442.11 497.364 440.508 499.759 437.037 499.759C434.366 499.759 431.963 497.63 430.628 494.17C429.827 492.041 428.759 489.38 427.424 486.719ZM475.487 349.665V347.536C475.487 335.56 473.618 324.649 471.749 319.061C471.482 318.262 471.215 317.73 471.215 316.932C471.215 315.601 472.016 314.803 473.885 314.803C476.555 314.803 486.702 317.73 491.508 320.923C493.644 322.254 495.246 324.383 495.246 326.778C495.246 328.109 494.712 329.439 493.911 330.77C491.508 334.23 490.173 339.02 489.639 348.068C489.639 350.463 489.372 355.786 489.105 362.439C492.576 362.173 496.314 361.64 500.319 361.108C509.665 359.778 512.335 356.052 515.806 356.052C519.01 356.052 524.885 357.915 528.089 360.576C529.691 361.64 531.026 363.237 531.026 365.632C531.026 369.092 528.89 369.624 520.613 370.423C509.131 371.753 498.183 372.818 488.571 373.616C488.304 383.197 487.77 398.366 487.77 402.357C495.246 401.559 502.723 400.495 508.864 399.696C516.34 398.898 520.613 394.906 525.152 394.906C534.23 395.172 543.042 399.164 543.042 404.753C543.042 408.478 541.707 408.478 531.827 409.277C519.812 410.341 504.859 411.406 489.105 413.002C505.66 434.558 519.277 446.8 529.691 457.445C534.764 462.501 541.173 467.824 556.66 477.937C560.131 480.332 562 482.195 562 483.525C562 484.856 560.665 485.654 558.262 486.187C555.058 486.985 550.518 486.985 541.173 486.985C532.361 486.985 531.026 485.388 524.084 476.34C515.005 465.163 498.45 442.542 486.702 422.317C486.969 437.22 487.236 451.324 487.236 466.227C487.236 476.606 486.969 487.783 486.969 499.759C486.702 514.13 484.832 519.452 480.026 519.452C476.288 519.452 471.749 511.468 471.749 501.622C471.749 491.243 473.084 486.453 473.351 479.8C474.152 465.695 474.953 440.679 475.22 430.034C465.607 445.736 453.058 458.776 435.969 469.953C434.634 471.017 433.832 471.284 432.764 471.284C431.963 471.284 430.628 470.219 430.628 469.155C430.628 468.09 431.162 467.292 431.696 466.759C446.649 452.921 459.466 434.558 469.079 415.131L456.262 416.728C452.257 416.994 443.445 418.591 438.105 418.591C436.236 418.591 434.901 418.325 433.565 416.994C431.429 414.333 428.492 409.809 428.492 409.011C428.492 408.212 429.026 407.946 430.094 407.946C437.037 407.414 445.581 406.615 454.126 405.817C459.199 405.285 466.675 404.753 474.686 403.688L475.22 374.947C460.801 376.277 453.859 377.608 449.853 377.608C448.785 377.608 447.45 377.076 446.382 376.011C443.178 372.818 440.775 368.56 440.775 367.761C440.775 367.229 441.309 366.963 444.246 366.697C450.921 366.431 463.204 365.1 475.22 363.769L475.487 349.665Z" fill="url(#paint25_linear_900_12)"/>
<path d="M459.046 239.615C460.954 240.984 461.945 242.733 461.945 243.949C461.945 244.862 461.03 245.774 460.191 245.774C459.58 245.774 458.817 245.394 457.215 243.417C455.537 241.288 453.553 239.007 452.409 237.942C452.257 237.79 452.257 237.714 452.257 237.562C452.257 237.334 452.409 237.106 452.714 237.106C453.248 237.106 456.452 237.79 459.046 239.615ZM464.921 235.129C466.828 236.346 468.049 238.018 468.049 238.855C468.049 240.223 467.438 241.136 466.294 241.136C465.455 241.136 464.921 240.451 463.395 238.855C461.64 237.03 459.809 235.053 458.36 233.836C458.131 233.608 458.055 233.532 458.055 233.38C458.055 233.152 458.283 233 458.589 233C459.504 233 462.708 233.684 464.921 235.129ZM449.586 250.868C450.273 254.822 450.349 260.069 450.349 264.022C450.349 278.545 443.331 293.144 427.081 293.144C419.604 293.144 409 288.81 409 272.082C409 260.145 415.714 249.576 420.825 244.101C416.4 245.014 410.755 245.85 409.458 246.078C409.076 246.154 408.771 246.154 408.542 246.154C407.703 246.154 407.169 245.926 406.635 245.47C405.185 244.177 404.728 243.341 404.728 242.885C404.728 242.58 405.033 242.428 405.643 242.428C409.381 242.352 413.654 241.82 416.934 241.288C418.841 241.06 422.656 240.299 424.105 239.083C424.945 238.475 425.402 238.17 426.165 238.17C427.004 238.17 427.691 238.399 428.835 239.235C429.98 240.071 430.438 240.984 430.438 241.668C430.438 242.352 429.827 242.809 428.912 243.341C422.503 247.143 412.662 258.396 412.662 272.919C412.662 283.64 420.749 288.506 427.31 288.506C441.576 288.506 447.45 272.234 447.45 258.928C447.45 254.138 447.298 251.781 446.916 250.108C446.306 247.979 445.39 245.774 444.322 243.873C444.017 243.341 443.941 242.885 443.941 242.504C443.941 241.82 444.399 241.44 445.543 241.06C446.153 240.908 446.611 240.832 446.993 240.832C447.984 240.832 448.366 241.288 448.747 242.276C449.052 243.113 449.739 244.253 450.273 245.166C452.867 249.652 455.766 253.606 462.632 259.004C464.005 259.993 464.31 261.361 464.31 262.578C464.31 263.718 464.005 265.011 462.708 265.011C461.945 265.011 461.182 264.479 460.42 263.87C456.987 261.209 452.485 255.43 449.586 250.868Z" fill="url(#paint26_linear_900_12)"/>
</g>
<path d="M204.854 594.196C208.258 593.938 211.507 593.679 214.189 593.473C215.581 593.37 216.354 593.112 216.87 592.905C217.128 592.802 217.541 592.699 217.747 592.699C218.211 592.699 218.727 592.854 219.191 593.06C220.274 593.473 221.408 594.247 221.408 595.228C221.408 595.848 220.893 596.209 219.5 596.209C218.366 596.157 217.386 596.157 216.458 596.157C212.641 596.157 208.464 596.364 204.803 596.673C204.751 602.507 204.751 607.772 204.751 613.605C204.751 614.999 204.854 616.599 204.906 617.167C204.958 617.477 204.958 617.683 204.958 617.89C204.958 618.406 204.854 619.335 204.442 620.522C203.875 622.071 203.359 622.587 202.637 622.587C202.173 622.587 201.709 622.329 201.399 621.916C200.007 620.109 198.614 618.561 196.036 616.702C195.778 616.547 195.675 616.289 195.675 616.134C195.675 615.876 195.83 615.721 196.088 615.721C196.191 615.721 196.191 615.721 196.345 615.773C197.841 616.238 200.884 617.064 201.245 617.064C201.502 617.064 201.709 616.857 201.709 616.496C201.709 609.166 201.76 602.455 201.76 596.88C198.821 597.138 195.881 597.396 193.922 597.654C191.756 597.912 190.105 598.17 188.558 598.429C188.3 598.48 188.094 598.48 187.888 598.48C187.578 598.48 187.321 598.429 187.063 598.222C185.98 597.448 185 596.261 185 595.899C185 595.641 185.258 595.538 185.722 595.538C186.65 595.538 188.404 595.538 190.105 595.383C193.664 595.073 197.738 594.764 201.76 594.454C201.709 592.905 201.709 591.46 201.657 590.066C201.605 588.363 201.554 585.936 200.935 584.749C200.832 584.543 200.78 584.336 200.78 584.181C200.78 583.923 200.884 583.768 201.245 583.768C201.709 583.768 203.41 584.336 204.803 585.059C205.731 585.523 205.937 585.936 205.937 586.349C205.937 586.556 205.834 586.762 205.731 586.969C205.525 587.33 204.958 588.776 204.906 590.376C204.854 591.666 204.854 592.957 204.854 594.196ZM191.446 603.797C191.549 603.384 191.756 603.229 191.962 603.229C192.271 603.229 192.529 603.539 192.529 604.004C192.323 608.391 191.343 611.489 190.105 613.45C189.126 614.999 188.197 615.928 187.114 615.928C185.825 615.928 185.309 614.999 185.309 613.657C185.309 613.14 185.722 612.418 187.063 611.23C188.507 609.94 190.415 607.359 191.446 603.797ZM212.538 603.539C212.435 603.384 212.384 603.229 212.384 603.074C212.384 602.816 212.538 602.61 212.796 602.61C212.899 602.61 213.106 602.661 213.312 602.816C215.993 604.52 218.469 607.204 220.171 609.888C220.893 611.076 221.305 612.315 221.305 613.295C221.305 614.121 220.738 615.154 219.758 615.154C218.933 615.154 217.953 614.431 217.283 612.831C215.787 609.217 214.085 605.965 212.538 603.539Z" fill="#977F00"/>
<path d="M239.148 598.635V595.331C239.148 594.247 239.148 593.215 239.097 592.182C239.045 591.305 238.891 590.376 238.581 589.395C238.53 589.188 238.478 588.93 238.478 588.776C238.478 588.466 238.581 588.259 238.839 588.259C239.251 588.259 241.469 589.395 242.139 590.014C250.545 589.447 258.487 588.93 265.707 588.569C266.274 588.517 266.635 588.466 267.151 588.208C267.46 588.053 267.718 588.001 267.976 588.001C268.646 588.001 269.265 588.311 270.967 589.86C271.947 590.789 272.101 591.098 272.101 591.615C272.101 591.976 271.998 592.182 271.792 592.441C271.534 592.75 271.122 593.318 270.812 594.764C269.471 600.906 267.409 606.275 264.16 610.766C260.705 615.515 255.857 619.283 248.998 621.709C248.843 621.761 248.792 621.761 248.689 621.761C248.225 621.761 247.915 621.4 247.915 621.09C247.915 620.884 248.018 620.677 248.225 620.574C254.568 617.322 259.054 612.934 262.097 607.875C265.088 602.971 266.738 597.448 267.409 591.821C267.46 591.357 267.46 591.305 267.46 591.202C267.46 590.944 267.409 590.892 266.945 590.892C260.447 591.202 252.196 591.821 245.491 592.441C245.027 592.492 244.563 592.544 244.254 592.544C243.532 592.544 242.965 592.234 242.346 591.77C242.294 592.337 242.294 594.402 242.294 596.673V602.352C242.243 604.055 241.675 604.52 240.902 604.52C240.231 604.52 239.716 604.21 239.303 603.487C239.045 603.023 238.839 602.249 238.839 601.526C238.839 600.855 239.148 600.184 239.148 598.635Z" fill="#977F00"/>
<path d="M305.416 598.016L303.869 599.1C299.382 602.145 294.225 604.83 288.552 606.791C288.398 606.843 288.294 606.843 288.191 606.843C287.779 606.843 287.521 606.585 287.521 606.327C287.521 606.017 287.727 605.707 288.14 605.501C293.606 602.661 298.608 599.667 302.837 596.519C306.55 593.731 309.593 590.84 311.862 587.846C312.945 586.453 313.048 585.369 313.1 584.233C313.151 583.82 313.306 583.613 313.667 583.613C314.234 583.613 315.42 584.13 316.967 585.317C317.689 585.885 317.844 586.246 317.844 586.659C317.844 586.969 317.741 587.279 317.483 587.485C317.019 587.846 316.348 588.466 315.626 589.188C313.254 591.718 310.469 594.247 307.221 596.673C307.943 597.241 308.613 598.067 308.819 598.429C309.026 598.79 309.077 599.203 309.077 599.564C309.077 599.667 309.077 599.771 309.026 600.545C308.974 601.474 308.974 602.145 308.974 603.952C308.974 606.378 308.974 613.863 309.129 619.954V620.316C309.129 621.297 308.922 622.484 307.788 622.484C306.292 622.484 305.519 620.471 305.209 619.18C305.158 618.922 305.106 618.664 305.106 618.457C305.106 617.89 305.261 617.477 305.416 617.064C305.57 616.651 305.622 615.773 305.622 615.257C305.725 611.282 305.828 607.359 305.828 602.92V600.029C305.828 599.203 305.777 598.635 305.416 598.016Z" fill="#977F00"/>
<path d="M355.077 599.977C355.077 603.074 355.026 606.688 355.026 610.146C355.026 613.605 355.077 617.012 355.129 620.058C355.129 621.864 354.665 622.742 353.788 622.742C352.757 622.742 352.086 621.968 351.467 619.954C351.364 619.593 351.261 619.077 351.261 618.561C351.261 618.199 351.313 617.838 351.416 617.528C351.519 617.167 351.777 616.393 351.828 615.154C351.983 608.03 352.035 595.435 352.035 589.911C352.035 587.433 351.828 585.782 351.21 584.285C351.158 584.13 351.107 584.026 351.107 583.872C351.107 583.562 351.364 583.304 351.777 583.304C352.293 583.304 354.355 584.181 355.284 584.904C355.799 585.317 356.006 585.73 356.006 586.194C356.006 586.453 355.903 586.814 355.799 587.124C355.438 588.208 355.129 589.756 355.129 592.028C355.129 593.473 355.077 595.744 355.077 598.377C360.905 599.513 367.918 601.371 370.961 603.023C372.972 604.107 373.643 605.397 373.643 606.327C373.643 607.152 373.075 607.824 372.25 607.824C371.528 607.824 370.6 607.359 369.62 606.688C366.32 604.468 359.822 601.784 355.077 599.977Z" fill="#977F00"/>
<path d="M395.766 592.905C395.766 592.699 395.869 592.595 396.075 592.595C397.21 592.647 398.035 592.647 398.963 592.647C400.304 592.647 401.748 592.595 403.862 592.492C408.658 592.234 413.815 591.718 416.703 591.202C417.58 591.098 418.147 590.479 418.869 590.479C419.591 590.479 420.777 590.84 421.551 591.253C422.376 591.718 422.685 592.337 422.685 592.854C422.685 593.886 421.19 594.351 420.365 594.454C414.073 594.918 406.183 595.486 400.149 595.848C399.324 595.899 399.066 595.899 398.705 595.899C398.087 595.899 397.726 595.796 397.107 595.176C396.385 594.454 395.766 593.163 395.766 592.905ZM390.867 614.224C396.797 613.812 402.779 613.399 408.091 613.14C413.764 612.831 418.611 612.624 421.809 612.521C422.789 612.469 423.562 612.366 424.284 612.16C424.49 612.108 424.748 612.056 425.006 612.056C425.522 612.056 426.141 612.16 426.708 612.418C428.1 612.986 428.977 613.708 429.183 614.224C429.286 614.431 429.286 614.637 429.286 614.844C429.286 615.618 428.719 616.083 427.688 616.083C427.224 616.083 426.553 616.031 425.677 615.98C423.511 615.876 421.19 615.825 419.127 615.825C413.454 615.825 403.656 616.134 395.25 617.115C393.858 617.27 393.548 617.425 393.188 617.425C392.827 617.425 392.517 617.322 392.259 617.115C391.228 616.289 390.196 614.896 390.196 614.586C390.196 614.379 390.351 614.276 390.867 614.224Z" fill="#977F00"/>
<path d="M446.047 589.756C445.84 589.55 445.737 589.343 445.737 589.188C445.737 588.982 445.84 588.827 446.201 588.827C446.305 588.827 446.562 588.879 446.769 588.93C450.224 589.756 453.163 591.202 455.071 592.699C455.845 593.318 456.309 594.299 456.309 595.228C456.309 596.106 455.845 597.086 455.02 597.086C454.453 597.086 453.731 596.725 453.06 596.157C451.204 594.609 447.852 591.511 446.047 589.756ZM446.614 616.341C446.614 616.134 446.769 615.928 447.078 615.928C447.233 615.928 447.903 616.134 448.986 616.134C449.657 616.134 450.327 616.031 451.049 615.721C455.742 613.708 460.796 610.456 465.592 606.688C470.645 602.661 475.338 598.067 478.948 593.628C479.154 593.37 479.361 593.267 479.619 593.267C479.98 593.267 480.289 593.525 480.289 593.938C480.289 594.092 480.237 594.299 480.134 594.505C477.762 599.409 472.399 604.984 466.829 609.682C462.394 613.347 457.34 616.96 453.37 618.767C452.183 619.335 451.822 619.541 451.565 619.8C451.307 620.058 450.997 620.264 450.533 620.264C450.224 620.264 449.966 620.212 449.657 620.006C448.264 619.025 446.614 616.857 446.614 616.341Z" fill="#977F00"/>
<path d="M531.601 584.543C532.839 585.472 533.509 586.556 533.509 587.433C533.509 588.053 532.89 588.672 532.323 588.672C531.91 588.672 531.395 588.414 530.312 587.072C529.177 585.627 527.836 584.078 527.063 583.355C526.96 583.252 526.96 583.2 526.96 583.097C526.96 582.942 527.063 582.788 527.269 582.788C527.579 582.788 529.745 583.2 531.601 584.543ZM535.52 581.445C536.81 582.271 537.635 583.407 537.635 583.975C537.635 584.904 537.222 585.523 536.449 585.523C535.881 585.523 535.52 585.059 534.489 583.975C533.303 582.736 532.065 581.394 531.085 580.568C530.931 580.413 530.879 580.361 530.879 580.258C530.879 580.103 531.034 580 531.24 580C531.91 580 533.973 580.465 535.52 581.445ZM507.466 588.104V587.485C507.466 587.175 507.621 586.917 508.034 586.917C508.704 586.917 509.839 587.846 510.87 589.395C515.46 589.188 519.585 588.672 522.061 588.311C523.35 588.156 523.917 587.846 524.227 587.588C524.484 587.382 524.794 587.227 525.206 587.227C525.877 587.227 526.392 587.537 527.785 588.879C528.713 589.808 528.868 590.273 528.868 590.789C528.868 591.047 528.765 591.305 528.61 591.408C528.249 591.615 527.475 592.337 526.444 594.092C523.608 599.048 519.998 604.881 514.996 610.25C510.406 615.205 504.63 619.8 497.204 622.897C497.049 622.948 496.895 623 496.688 623C496.224 623 495.863 622.742 495.863 622.381C495.863 622.122 496.069 621.813 496.534 621.555C502.773 618.044 508.343 613.192 512.933 607.824C517.626 602.455 521.184 596.725 523.505 591.202C523.556 591.047 523.608 590.892 523.608 590.789C523.608 590.634 523.505 590.582 523.298 590.582C523.195 590.582 523.092 590.582 522.679 590.634C519.688 590.995 515.821 591.357 512.83 591.873C512.469 591.924 512.108 591.976 511.798 591.976C511.334 591.976 510.922 591.924 510.509 591.666C509.529 592.699 507.466 595.435 505.765 597.035C502.877 599.822 499.679 602.455 495.863 604.571C495.708 604.675 495.554 604.675 495.399 604.675C494.986 604.675 494.574 604.417 494.574 604.055C494.574 603.797 494.729 603.487 495.141 603.178C500.608 598.893 504.733 594.196 506.641 590.944C507.363 589.756 507.466 588.827 507.466 588.104Z" fill="#977F00"/>
<path d="M568.019 595.899V594.351C568.019 593.112 568.019 591.821 567.968 590.376C567.916 588.001 567.71 585.678 567.246 584.852C567.194 584.749 567.143 584.543 567.143 584.439C567.143 584.13 567.297 583.923 567.71 583.923C568.174 583.923 568.793 584.078 570.495 584.904C571.629 585.472 571.836 585.936 571.836 586.349C571.836 586.504 571.784 586.659 571.732 586.762C571.475 587.279 571.217 588.156 571.217 589.756C571.217 592.028 571.165 593.783 571.114 595.641C572.093 595.589 573.28 595.538 574.517 595.435C576.219 595.28 576.838 595.073 577.302 594.918C577.611 594.815 577.766 594.764 578.179 594.764C578.591 594.764 579.107 594.867 579.571 595.022C581.067 595.538 581.892 596.415 581.892 597.293C581.892 597.706 581.479 598.119 580.138 598.119C578.798 598.067 577.715 598.067 576.632 598.067C574.827 598.067 573.022 598.119 571.062 598.17C570.753 605.552 569.876 610.714 567.555 614.379C565.132 618.199 561.367 620.367 554.766 622.226C554.56 622.277 554.302 622.329 554.199 622.329C553.786 622.329 553.425 622.019 553.425 621.709C553.425 621.4 553.58 621.142 553.992 620.987C559.459 619.025 563.12 616.754 565.286 612.469C566.936 609.217 567.762 604.778 567.968 598.325C566.214 598.377 563.636 598.532 561.264 598.738C559.098 598.893 557.138 599.048 555.333 599.255C555.282 601.061 555.282 602.92 555.282 604.778C555.282 606.12 555.282 607.411 555.333 608.856C555.333 611.437 554.508 611.747 553.941 611.747C553.116 611.747 552.033 610.508 552.033 608.082C552.033 607.307 552.187 606.585 552.239 605.552C552.291 603.539 552.342 601.474 552.394 599.513C551.311 599.667 550.383 599.771 549.506 599.874C547.598 600.132 546.515 600.339 545.587 600.493C545.277 600.545 544.916 600.7 544.555 600.7C544.297 600.7 543.988 600.648 543.524 600.287C542.441 599.461 541.822 598.583 541.822 598.222C541.822 598.016 541.977 597.861 542.492 597.861C543.06 597.861 544.091 597.809 546.154 597.654C548.217 597.448 550.228 597.293 552.394 597.138C552.394 594.867 552.394 592.905 552.342 591.563C552.291 589.756 552.033 588.259 551.62 587.382C551.569 587.279 551.517 587.072 551.517 586.969C551.517 586.607 551.723 586.349 552.136 586.349C552.445 586.349 553.27 586.607 554.869 587.433C556.004 588.001 556.21 588.517 556.21 589.034C556.21 589.24 556.158 589.447 556.055 589.653C555.797 590.221 555.643 590.944 555.591 592.234C555.54 593.628 555.436 595.176 555.385 596.828C559.82 596.519 564.1 596.209 568.019 595.899Z" fill="#977F00"/>
<path d="M602.881 616.702C602.881 618.457 602.623 619.077 601.901 619.077C601.437 619.077 600.715 618.87 600.199 617.838C599.683 616.857 599.529 616.083 599.529 615.154C599.529 614.328 599.477 612.779 599.425 611.592C599.116 607.359 598.652 599.926 597.93 595.538C597.672 593.783 597.311 592.854 596.95 592.182C596.795 591.924 596.744 591.718 596.744 591.511C596.744 591.15 597.002 590.944 597.466 590.944C598.033 590.944 599.632 591.666 600.921 592.647C609.43 591.821 617.32 591.357 624.643 590.892C625.314 590.84 625.674 590.685 626.087 590.376C626.293 590.221 626.603 590.118 626.912 590.118C627.531 590.118 628.82 590.789 630.316 592.028C631.399 592.957 631.45 593.112 631.45 593.783C631.45 594.092 631.347 594.351 631.141 594.557C630.677 595.022 630.264 595.589 630.11 596.261C628.717 602.042 627.531 606.894 625.778 613.347C626.448 613.605 627.067 613.966 627.325 614.328C627.531 614.586 627.583 614.896 627.583 615.154C627.583 615.721 627.17 616.134 626.551 616.134C624.179 615.98 621.858 615.928 619.486 615.928C613.968 615.928 608.295 616.289 602.881 616.702ZM602.778 614.07C609.894 613.399 616.289 613.089 622.89 612.934C624.179 606.12 625.262 598.893 625.778 594.764C625.829 594.247 625.829 594.196 625.829 594.092C625.829 593.731 625.674 593.628 624.798 593.628C618.248 593.886 608.76 594.454 601.54 595.28C601.901 600.752 602.365 607.152 602.778 614.07Z" fill="#977F00"/>
<path d="M649.758 589.756C649.551 589.55 649.448 589.343 649.448 589.188C649.448 588.982 649.551 588.827 649.912 588.827C650.015 588.827 650.273 588.879 650.48 588.93C653.935 589.756 656.874 591.202 658.782 592.699C659.556 593.318 660.02 594.299 660.02 595.228C660.02 596.106 659.556 597.086 658.731 597.086C658.164 597.086 657.442 596.725 656.771 596.157C654.915 594.609 651.563 591.511 649.758 589.756ZM650.325 616.341C650.325 616.134 650.48 615.928 650.789 615.928C650.944 615.928 651.614 616.134 652.697 616.134C653.368 616.134 654.038 616.031 654.76 615.721C659.453 613.708 664.507 610.456 669.303 606.688C674.356 602.661 679.049 598.067 682.659 593.628C682.865 593.37 683.072 593.267 683.33 593.267C683.691 593.267 684 593.525 684 593.938C684 594.092 683.948 594.299 683.845 594.505C681.473 599.409 676.11 604.984 670.54 609.682C666.105 613.347 661.051 616.96 657.081 618.767C655.894 619.335 655.533 619.541 655.276 619.8C655.018 620.058 654.708 620.264 654.244 620.264C653.935 620.264 653.677 620.212 653.368 620.006C651.975 619.025 650.325 616.857 650.325 616.341Z" fill="#977F00"/>
</g>
</g>
</g>
<defs>
<filter id="filter0_i_900_12" x="0" y="0" width="869" height="873" filterUnits="userSpaceOnUse" color-interpolation-filters="sRGB">
<feFlood flood-opacity="0" result="BackgroundImageFix"/>
<feBlend mode="normal" in="SourceGraphic" in2="BackgroundImageFix" result="shape"/>
<feColorMatrix in="SourceAlpha" type="matrix" values="0 0 0 0 0 0 0 0 0 0 0 0 0 0 0 0 0 0 127 0" result="hardAlpha"/>
<feOffset dy="4"/>
<feGaussianBlur stdDeviation="3"/>
<feComposite in2="hardAlpha" operator="arithmetic" k2="-1" k3="1"/>
<feColorMatrix type="matrix" values="0 0 0 0 1 0 0 0 0 1 0 0 0 0 1 0 0 0 0.6 0"/>
<feBlend mode="normal" in2="shape" result="effect1_innerShadow_900_12"/>
</filter>
<filter id="filter1_d_900_12" x="177" y="229" width="515" height="406" filterUnits="userSpaceOnUse" color-interpolation-filters="sRGB">
<feFlood flood-opacity="0" result="BackgroundImageFix"/>
<feColorMatrix in="SourceAlpha" type="matrix" values="0 0 0 0 0 0 0 0 0 0 0 0 0 0 0 0 0 0 127 0" result="hardAlpha"/>
<feOffset dy="4"/>
<feGaussianBlur stdDeviation="4"/>
<feComposite in2="hardAlpha" operator="out"/>
<feColorMatrix type="matrix" values="0 0 0 0 0 0 0 0 0 0 0 0 0 0 0 0 0 0 0.15 0"/>
<feBlend mode="normal" in2="BackgroundImageFix" result="effect1_dropShadow_900_12"/>
<feBlend mode="normal" in="SourceGraphic" in2="effect1_dropShadow_900_12" result="shape"/>
</filter>
<filter id="filter2_d_900_12" x="303" y="233" width="263" height="320" filterUnits="userSpaceOnUse" color-interpolation-filters="sRGB">
<feFlood flood-opacity="0" result="BackgroundImageFix"/>
<feColorMatrix in="SourceAlpha" type="matrix" values="0 0 0 0 0 0 0 0 0 0 0 0 0 0 0 0 0 0 127 0" result="hardAlpha"/>
<feOffset dy="4"/>
<feGaussianBlur stdDeviation="2"/>
<feComposite in2="hardAlpha" operator="out"/>
<feColorMatrix type="matrix" values="0 0 0 0 0 0 0 0 0 0 0 0 0 0 0 0 0 0 0.25 0"/>
<feBlend mode="normal" in2="BackgroundImageFix" result="effect1_dropShadow_900_12"/>
<feBlend mode="normal" in="SourceGraphic" in2="effect1_dropShadow_900_12" result="shape"/>
</filter>
<linearGradient id="paint0_linear_900_12" x1="115.867" y1="152.075" x2="727.787" y2="771.238" gradientUnits="userSpaceOnUse">
<stop stop-color="#FBE67B"/>
<stop offset="0.34" stop-color="#FCFBE7"/>
<stop offset="0.645" stop-color="#FCFBE7"/>
<stop offset="1" stop-color="#F7D14E"/>
</linearGradient>
<linearGradient id="paint1_linear_900_12" x1="-47" y1="436" x2="890" y2="436" gradientUnits="userSpaceOnUse">
<stop stop-color="#FED132"/>
<stop offset="0.477857" stop-color="#F9CB29"/>
<stop offset="1" stop-color="#FED132"/>
</linearGradient>
<linearGradient id="paint2_linear_900_12" x1="482.69" y1="231.12" x2="404.87" y2="41.5219" gradientUnits="userSpaceOnUse">
<stop stop-color="white"/>
<stop offset="1" stop-color="#FED132"/>
</linearGradient>
<linearGradient id="paint3_linear_900_12" x1="798.382" y1="184.173" x2="740.388" y2="801.424" gradientUnits="userSpaceOnUse">
<stop stop-color="#FED132"/>
<stop offset="0.199314" stop-color="white"/>
<stop offset="0.662706" stop-color="white"/>
<stop offset="1" stop-color="#FED132"/>
</linearGradient>
<linearGradient id="paint4_linear_900_12" x1="85.4159" y1="385.221" x2="603.293" y2="775.904" gradientUnits="userSpaceOnUse">
<stop stop-color="white"/>
<stop offset="1" stop-color="#F2BD00"/>
</linearGradient>
<linearGradient id="paint5_linear_900_12" x1="191.509" y1="674.324" x2="1836.57" y2="368.306" gradientUnits="userSpaceOnUse">
<stop stop-color="white"/>
<stop offset="1" stop-color="#FFF0A1"/>
</linearGradient>
<linearGradient id="paint6_linear_900_12" x1="842.043" y1="322.301" x2="245.685" y2="-121.013" gradientUnits="userSpaceOnUse">
<stop offset="0.122188" stop-color="white"/>
<stop offset="0.321376" stop-color="#FFD84D"/>
<stop offset="0.42841" stop-color="#FFD84D"/>
<stop offset="0.589959" stop-color="white"/>
<stop offset="0.72478" stop-color="white"/>
<stop offset="0.985" stop-color="#FFD84D"/>
</linearGradient>
<linearGradient id="paint7_linear_900_12" x1="-142.435" y1="645.898" x2="449.416" y2="83.1228" gradientUnits="userSpaceOnUse">
<stop stop-color="white"/>
<stop offset="1" stop-color="#FFCD1A"/>
</linearGradient>
<linearGradient id="paint8_linear_900_12" x1="336.977" y1="403.891" x2="689.472" y2="655.954" gradientUnits="userSpaceOnUse">
<stop stop-color="white"/>
<stop offset="1" stop-color="#FED132"/>
</linearGradient>
<linearGradient id="paint9_linear_900_12" x1="-230.326" y1="439.534" x2="508.06" y2="-110.543" gradientUnits="userSpaceOnUse">
<stop stop-color="white"/>
<stop offset="1" stop-color="#F2BD00"/>
</linearGradient>
<linearGradient id="paint10_linear_900_12" x1="735.137" y1="176.72" x2="128.196" y2="738.603" gradientUnits="userSpaceOnUse">
<stop offset="0.005" stop-color="#FED132"/>
<stop offset="0.505" stop-color="white"/>
<stop offset="1" stop-color="#FED132"/>
</linearGradient>
<linearGradient id="paint11_linear_900_12" x1="422.341" y1="519.075" x2="84.7346" y2="273.338" gradientUnits="userSpaceOnUse">
<stop stop-color="white"/>
<stop offset="1" stop-color="#FFCA0C"/>
</linearGradient>
<linearGradient id="paint12_linear_900_12" x1="469.962" y1="194.631" x2="456.009" y2="220.154" gradientUnits="userSpaceOnUse">
<stop stop-color="white"/>
<stop offset="1" stop-color="#FED132"/>
</linearGradient>
<linearGradient id="paint13_linear_900_12" x1="106.097" y1="347.065" x2="124.572" y2="322.655" gradientUnits="userSpaceOnUse">
<stop stop-color="#FAD575"/>
<stop offset="1" stop-color="#FFE454"/>
</linearGradient>
<linearGradient id="paint14_linear_900_12" x1="377" y1="484.5" x2="423.368" y2="521.167" gradientUnits="userSpaceOnUse">
<stop stop-color="white"/>
<stop offset="1" stop-color="#FFE454"/>
</linearGradient>
<linearGradient id="paint15_linear_900_12" x1="166" y1="778.5" x2="212.368" y2="815.167" gradientUnits="userSpaceOnUse">
<stop stop-color="white"/>
<stop offset="1" stop-color="#FFE454"/>
</linearGradient>
<linearGradient id="paint16_linear_900_12" x1="792" y1="68.5" x2="838.368" y2="105.167" gradientUnits="userSpaceOnUse">
<stop stop-color="white"/>
<stop offset="1" stop-color="#FFE454"/>
</linearGradient>
<linearGradient id="paint17_linear_900_12" x1="343.5" y1="438" x2="336" y2="449" gradientUnits="userSpaceOnUse">
<stop stop-color="white"/>
<stop offset="1" stop-color="#FFE558"/>
</linearGradient>
<linearGradient id="paint18_linear_900_12" x1="440.5" y1="473" x2="433" y2="484" gradientUnits="userSpaceOnUse">
<stop stop-color="white"/>
<stop offset="1" stop-color="#FFE558"/>
</linearGradient>
<linearGradient id="paint19_linear_900_12" x1="786.5" y1="95" x2="779" y2="106" gradientUnits="userSpaceOnUse">
<stop stop-color="white"/>
<stop offset="1" stop-color="#FFE558"/>
</linearGradient>
<linearGradient id="paint20_linear_900_12" x1="860" y1="54.4" x2="848" y2="72" gradientUnits="userSpaceOnUse">
<stop stop-color="white"/>
<stop offset="1" stop-color="#FFE558"/>
</linearGradient>
<linearGradient id="paint21_linear_900_12" x1="605" y1="718.8" x2="596" y2="732" gradientUnits="userSpaceOnUse">
<stop stop-color="white"/>
<stop offset="1" stop-color="#FFE558"/>
</linearGradient>
<linearGradient id="paint22_linear_900_12" x1="221" y1="766.8" x2="212" y2="780" gradientUnits="userSpaceOnUse">
<stop stop-color="white"/>
<stop offset="1" stop-color="#FFE558"/>
</linearGradient>
<linearGradient id="paint23_linear_900_12" x1="229.25" y1="758.1" x2="222.5" y2="768" gradientUnits="userSpaceOnUse">
<stop stop-color="white"/>
<stop offset="1" stop-color="#FFE558"/>
</linearGradient>
<linearGradient id="paint24_linear_900_12" x1="591.5" y1="710" x2="584" y2="721" gradientUnits="userSpaceOnUse">
<stop stop-color="white"/>
<stop offset="1" stop-color="#FFE558"/>
</linearGradient>
<linearGradient id="paint25_linear_900_12" x1="455.75" y1="351.157" x2="341.986" y2="544.523" gradientUnits="userSpaceOnUse">
<stop offset="0.192458" stop-color="#FFD500"/>
<stop offset="0.435" stop-color="#FFF1AA"/>
<stop offset="0.73656" stop-color="#EFD447"/>
</linearGradient>
<linearGradient id="paint26_linear_900_12" x1="455.75" y1="351.157" x2="341.986" y2="544.523" gradientUnits="userSpaceOnUse">
<stop offset="0.192458" stop-color="#FFD500"/>
<stop offset="0.435" stop-color="#FFF1AA"/>
<stop offset="0.73656" stop-color="#EFD447"/>
</linearGradient>
<clipPath id="clip0_900_12">
<rect width="869" height="869" rx="30" fill="white"/>
</clipPath>
</defs>
</svg>
